<svg width="100" height="40" viewBox="0 0 445 598" fill="none" xmlns="http://www.w3.org/2000/svg">
<path d="M13 1H302.5C341.5 1.5 423.6 23.4 440 107C456.4 190.6 411.833 242.833 387.5 258.5C372 267.333 333.9 285.2 305.5 286C277.1 286.8 217.333 286.333 191 286L201.75 245.75L212.5 205.5H287C306.667 203.833 345.6 188.7 344 141.5C342.4 94.3 305.333 82.5 287 82.5H96L54.5 41.75L13 1Z" fill="#93BCF3"/>
<path d="M54.5 41.75L96 82.5H287C305.333 82.5 342.4 94.3 344 141.5C345.6 188.7 306.667 203.833 287 205.5H212.5L201.75 245.75M54.5 41.75L13 1H302.5C341.5 1.5 423.6 23.4 440 107C456.4 190.6 411.833 242.833 387.5 258.5C372 267.333 333.9 285.2 305.5 286C277.1 286.8 217.333 286.333 191 286L201.75 245.75M54.5 41.75L287 44.5C325.333 47.3333 400.9 70.7 396.5 141.5C392.1 212.3 332 239.667 302.5 244.5L201.75 245.75" stroke="black"/>
<path d="M289.5 205.75L213 206L202 246.5L304 245C333.5 240.167 394.6 212.55 399 141.75C403.4 70.95 327.833 46.8333 289.5 44L54.5 41L96 82L289.5 81.5C307.5 84 341.5 94 345 141.75C348.454 188.874 309 202.5 289.5 205.75Z" fill="#769CCF"/>
<path fill-rule="evenodd" clip-rule="evenodd" d="M1 431.5L98 103H163.25H167L71.5 379H123L1.68147 596.175L1 597L51 431.5H1Z" fill="#D9D9D9"/>
<path fill-rule="evenodd" clip-rule="evenodd" d="M1 431.5L98 103H163.25H167L71.5 379H123L1.68147 596.175L1 597L51 431.5H1Z" fill="black" fill-opacity="0.15"/>
<path d="M167 103L71.5 379H123L1.68147 596.175L212.5 341H160L228.5 103H167Z" fill="#D9D9D9"/>
<path d="M167 103L71.5 379H123L1.68147 596.175L212.5 341H160L228.5 103H167Z" fill="black" fill-opacity="0.15"/>
<path fill-rule="evenodd" clip-rule="evenodd" d="M1 431.5L98 103H163.25H167L71.5 379H123L1.68147 596.175L1 597L51 431.5H1Z" fill="#D9D9D9"/>
<path fill-rule="evenodd" clip-rule="evenodd" d="M1 431.5L98 103H163.25H167L71.5 379H123L1.68147 596.175L1 597L51 431.5H1Z" fill="black" fill-opacity="0.15"/>
<path fill-rule="evenodd" clip-rule="evenodd" d="M1 431.5L98 103H163.25H167L71.5 379H123L1.68147 596.175L1 597L51 431.5H1Z" fill="url(#paint0_linear_68_25)"/>
<path d="M71.5 379L167 103H228.5L160 341H212.5L1.68147 596.175L123 379H71.5Z" fill="url(#paint1_linear_68_25)"/>
<path d="M167 103H163.25M167 103H228.5M167 103L71.5 379H123L1.68147 596.175M1.5 596.5L1.68147 596.175M228.5 103L160 341H212.5L1.68147 596.175M228.5 103H163.25M163.25 103H98L1 431.5H51L1 597L1.68147 596.175" stroke="black" stroke-width="0.5"/>
<defs>
<linearGradient id="paint0_linear_68_25" x1="114.75" y1="103" x2="114.75" y2="597" gradientUnits="userSpaceOnUse">
<stop stop-color="#09E4C6"/>
<stop offset="1" stop-color="#05D0B4"/>
</linearGradient>
<linearGradient id="paint1_linear_68_25" x1="114.75" y1="103" x2="114.75" y2="597" gradientUnits="userSpaceOnUse">
<stop stop-color="#08BEA5"/>
<stop offset="1" stop-color="#069C87"/>
</linearGradient>
</defs>
</svg>
